<svg xmlns="http://www.w3.org/2000/svg" version="1.1" xmlns:xlink="http://www.w3.org/1999/xlink" xmlns:svgjs="http://svgjs.dev/svgjs" width="1440" height="560" preserveAspectRatio="none" viewBox="0 0 1440 560"><g mask="url(&quot;#SvgjsMask1005&quot;)" fill="none"><path d="M -843.1598094429255,327 C -747.16,307.8 -555.16,204 -363.1598094429255,231 C -171.16,258 -75.16,493.8 116.8401905570745,462 C 308.84,430.2 404.84,78.4 596.8401905570745,72 C 788.84,65.6 908.21,419.4 1076.8401905570745,430 C 1245.47,440.6 1367.37,186 1440,125" stroke="rgba(235, 235, 235, 1)" stroke-width="2"></path><path d="M -495.08924749895016,110 C -399.09,166.6 -207.09,391.8 -15.089247498950158,393 C 176.91,394.2 272.91,131 464.91075250104984,116 C 656.91,101 752.91,313.8 944.9107525010498,318 C 1136.91,322.2 1325.89,143.8 1424.91075250105,137 C 1523.93,130.2 1436.98,254.6 1440,284" stroke="rgba(235, 235, 235, 1)" stroke-width="2"></path><path d="M -95.9411706351948,451 C 0.06,403.2 192.06,227 384.0588293648052,212 C 576.06,197 672.06,372.2 864.0588293648052,376 C 1056.06,379.8 1152.06,242.8 1344.0588293648052,231 C 1536.06,219.2 1804.87,311 1824.0588293648052,317 C 1843.25,323 1516.81,272.2 1440,261" stroke="rgba(235, 235, 235, 1)" stroke-width="2"></path><path d="M -154.58778413172996,57 C -58.59,104.4 133.41,263.6 325.41221586827004,294 C 517.41,324.4 613.41,211 805.4122158682701,209 C 997.41,207 1093.41,306.8 1285.41221586827,284 C 1477.41,261.2 1734.49,86.4 1765.41221586827,95 C 1796.33,103.6 1505.08,280.6 1440,327" stroke="rgba(235, 235, 235, 1)" stroke-width="2"></path></g><defs><mask id="SvgjsMask1005"><rect width="1440" height="560" fill="#ffffff"></rect></mask></defs></svg>